<svg
      xmlns="http://www.w3.org/2000/svg"
      width="400"
      height="11.1"
      x="0"
      y="0"
      viewBox="0 0 400 11.1"
    >
      <path
        fill="none"
      [attr.stroke]="stroke"
        strokeMiterlimit="10"
        strokeWidth="2"
        d="M0 10.6C10 10.6 10.1.5 20.1.5s9.9 10 19.9 10 10-10 20-10 10 10 20 10 10-10 20-10 10 10 20 10 10-10 20-10 10 10 20 10 10-10 20-10 10 10 20 10 10-10 20-10 10 10 20 10 10-10 20-10 10 10 20 10 10-10 20-10 10 10 20 10 10-10 20-10 10 10 20 10 10-10 20-10 10 10 20 10"
      ></path>
    </svg>